<mxfile host="app.diagrams.net" modified="2024-05-19T19:26:31.527Z" agent="Mozilla/5.0 (Windows NT 10.0; Win64; x64) AppleWebKit/537.36 (KHTML, like Gecko) Chrome/124.0.0.0 Safari/537.36" version="24.4.4" etag="pMMqebBOsmm3WZ6Ruc8E" type="github">
  <diagram name="Страница — 1" id="xSEXYo9A_LoxQxD110q0">
    <mxGraphModel>
      <root>
        <mxCell id="0" />
        <mxCell id="1" parent="0" />
      </root>
    </mxGraphModel>
  </diagram>
</mxfile>
